<svg width="942" height="230" viewBox="0 0 942 230" fill="none" xmlns="http://www.w3.org/2000/svg">
<path d="M114 82.5C136.091 82.5 154 64.5914 154 42.5C154 20.4086 136.091 2.5 114 2.5C91.9086 2.5 74 20.4086 74 42.5C74 64.5914 91.9086 82.5 114 82.5Z" stroke="#8FD3FF" stroke-width="5"/>
<path d="M29 137.5C44 82.5 184 82.5 199 137.5" stroke="#8FD3FF" stroke-width="5"/>
<path d="M2.57786 221.5V196.773H18.95V201.083H7.80584V206.975H17.8634V211.286H7.80584V221.5H2.57786ZM18.0384 221.5L28.6272 196.773H50.2394V201.083H38.8055V206.975H49.3822V211.286H38.8055V217.19H50.2877V221.5H33.5775V201.916H31.8509L23.7856 221.5H18.0384ZM23.7132 215.862V211.781H36.5597V215.862H23.7132ZM54.4079 221.5V196.773H59.6359V217.19H70.2368V221.5H54.4079ZM73.699 221.5V196.773H78.9269V217.19H89.5278V221.5H73.699ZM92.99 221.5V196.773H109.652V201.083H98.218V206.975H108.795V211.286H98.218V217.19H109.7V221.5H92.99ZM127.222 203.884C127.126 202.91 126.711 202.154 125.979 201.614C125.246 201.075 124.252 200.805 122.997 200.805C122.143 200.805 121.423 200.926 120.835 201.168C120.248 201.401 119.797 201.727 119.483 202.146C119.177 202.564 119.024 203.039 119.024 203.57C119.008 204.013 119.101 204.399 119.302 204.729C119.511 205.059 119.797 205.345 120.159 205.587C120.521 205.82 120.94 206.025 121.415 206.202C121.89 206.371 122.397 206.516 122.936 206.637L125.158 207.168C126.236 207.41 127.226 207.732 128.128 208.134C129.029 208.537 129.81 209.032 130.47 209.619C131.13 210.207 131.641 210.899 132.004 211.696C132.374 212.493 132.563 213.406 132.571 214.437C132.563 215.95 132.177 217.262 131.412 218.373C130.655 219.476 129.561 220.333 128.128 220.945C126.703 221.548 124.985 221.85 122.972 221.85C120.976 221.85 119.238 221.544 117.756 220.933C116.283 220.321 115.132 219.415 114.303 218.216C113.482 217.009 113.052 215.515 113.011 213.737H118.07C118.127 214.566 118.364 215.258 118.783 215.813C119.209 216.361 119.777 216.775 120.485 217.057C121.202 217.33 122.011 217.467 122.912 217.467C123.797 217.467 124.566 217.339 125.218 217.081C125.878 216.823 126.389 216.465 126.752 216.006C127.114 215.548 127.295 215.02 127.295 214.425C127.295 213.869 127.13 213.402 126.8 213.024C126.478 212.646 126.003 212.324 125.375 212.058C124.755 211.793 123.995 211.551 123.093 211.334L120.401 210.658C118.316 210.151 116.67 209.358 115.462 208.279C114.255 207.201 113.655 205.748 113.663 203.92C113.655 202.423 114.054 201.115 114.859 199.996C115.672 198.878 116.787 198.004 118.203 197.376C119.62 196.749 121.23 196.435 123.033 196.435C124.868 196.435 126.47 196.749 127.838 197.376C129.215 198.004 130.285 198.878 131.05 199.996C131.814 201.115 132.209 202.411 132.233 203.884H127.222ZM149.502 203.884C149.405 202.91 148.991 202.154 148.258 201.614C147.526 201.075 146.532 200.805 145.276 200.805C144.423 200.805 143.702 200.926 143.115 201.168C142.527 201.401 142.076 201.727 141.762 202.146C141.456 202.564 141.304 203.039 141.304 203.57C141.287 204.013 141.38 204.399 141.581 204.729C141.791 205.059 142.076 205.345 142.438 205.587C142.801 205.82 143.219 206.025 143.694 206.202C144.169 206.371 144.676 206.516 145.215 206.637L147.437 207.168C148.516 207.41 149.506 207.732 150.407 208.134C151.309 208.537 152.09 209.032 152.75 209.619C153.41 210.207 153.921 210.899 154.283 211.696C154.653 212.493 154.842 213.406 154.85 214.437C154.842 215.95 154.456 217.262 153.691 218.373C152.935 219.476 151.84 220.333 150.407 220.945C148.983 221.548 147.264 221.85 145.252 221.85C143.255 221.85 141.517 221.544 140.036 220.933C138.563 220.321 137.412 219.415 136.583 218.216C135.762 217.009 135.331 215.515 135.291 213.737H140.35C140.406 214.566 140.643 215.258 141.062 215.813C141.489 216.361 142.056 216.775 142.764 217.057C143.481 217.33 144.29 217.467 145.191 217.467C146.077 217.467 146.845 217.339 147.497 217.081C148.157 216.823 148.669 216.465 149.031 216.006C149.393 215.548 149.574 215.02 149.574 214.425C149.574 213.869 149.409 213.402 149.079 213.024C148.757 212.646 148.282 212.324 147.654 212.058C147.035 211.793 146.274 211.551 145.372 211.334L142.68 210.658C140.595 210.151 138.949 209.358 137.742 208.279C136.534 207.201 135.935 205.748 135.943 203.92C135.935 202.423 136.333 201.115 137.138 199.996C137.951 198.878 139.066 198.004 140.483 197.376C141.899 196.749 143.509 196.435 145.312 196.435C147.147 196.435 148.749 196.749 150.117 197.376C151.494 198.004 152.564 198.878 153.329 199.996C154.094 201.115 154.488 202.411 154.512 203.884H149.502ZM158.367 221.5V196.773H163.595V207.675H163.921L172.819 196.773H179.086L169.91 207.844L179.194 221.5H172.94L166.167 211.334L163.595 214.473V221.5H158.367ZM186.07 221.5H180.468L189.004 196.773H195.742L204.266 221.5H198.663L192.47 202.423H192.276L186.07 221.5ZM185.72 211.781H198.953V215.862H185.72V211.781ZM207.242 221.5V196.773H217.142C218.962 196.773 220.479 197.042 221.694 197.582C222.91 198.121 223.823 198.87 224.435 199.827C225.047 200.777 225.353 201.872 225.353 203.112C225.353 204.077 225.16 204.927 224.773 205.659C224.387 206.384 223.856 206.979 223.179 207.446C222.511 207.905 221.747 208.231 220.885 208.424V208.665C221.827 208.706 222.709 208.971 223.53 209.462C224.359 209.953 225.031 210.642 225.546 211.527C226.061 212.404 226.319 213.451 226.319 214.666C226.319 215.978 225.993 217.149 225.341 218.18C224.697 219.202 223.743 220.011 222.479 220.607C221.215 221.202 219.658 221.5 217.807 221.5H207.242ZM212.47 217.226H216.732C218.189 217.226 219.251 216.948 219.919 216.393C220.588 215.829 220.922 215.081 220.922 214.147C220.922 213.463 220.757 212.859 220.427 212.336C220.097 211.813 219.626 211.402 219.014 211.104C218.41 210.807 217.69 210.658 216.853 210.658H212.47V217.226ZM212.47 207.12H216.346C217.062 207.12 217.698 206.995 218.253 206.746C218.817 206.488 219.259 206.126 219.581 205.659C219.911 205.192 220.076 204.633 220.076 203.981C220.076 203.087 219.758 202.367 219.123 201.82C218.495 201.272 217.601 200.999 216.442 200.999H212.47V207.12Z" fill="#BFE8FF"/>
<path d="M308.534 221.5V196.773H318.434C320.254 196.773 321.771 197.042 322.986 197.582C324.202 198.121 325.115 198.87 325.727 199.827C326.339 200.777 326.645 201.872 326.645 203.112C326.645 204.077 326.452 204.927 326.065 205.659C325.679 206.384 325.148 206.979 324.471 207.446C323.803 207.905 323.039 208.231 322.177 208.424V208.665C323.119 208.706 324.001 208.971 324.822 209.462C325.651 209.953 326.323 210.642 326.838 211.527C327.353 212.404 327.611 213.451 327.611 214.666C327.611 215.978 327.285 217.149 326.633 218.18C325.989 219.202 325.035 220.011 323.771 220.607C322.507 221.202 320.95 221.5 319.099 221.5H308.534ZM313.762 217.226H318.024C319.481 217.226 320.543 216.948 321.211 216.393C321.88 215.829 322.214 215.081 322.214 214.147C322.214 213.463 322.049 212.859 321.719 212.336C321.389 211.813 320.918 211.402 320.306 211.104C319.702 210.807 318.982 210.658 318.145 210.658H313.762V217.226ZM313.762 207.12H317.638C318.354 207.12 318.99 206.995 319.545 206.746C320.109 206.488 320.551 206.126 320.873 205.659C321.203 205.192 321.368 204.633 321.368 203.981C321.368 203.087 321.05 202.367 320.415 201.82C319.787 201.272 318.893 200.999 317.734 200.999H313.762V207.12ZM335.275 221.5H329.672L338.208 196.773H344.946L353.47 221.5H347.868L341.674 202.423H341.48L335.275 221.5ZM334.924 211.781H348.157V215.862H334.924V211.781ZM356.446 221.5V196.773H361.674V217.19H372.275V221.5H356.446ZM375.737 221.5V196.773H380.965V217.19H391.566V221.5H375.737ZM402.897 221.5V196.773H408.125V207.675H408.451L417.35 196.773H423.616L414.44 207.844L423.725 221.5H417.47L410.697 211.334L408.125 214.473V221.5H402.897ZM447.021 196.773V221.5H442.506L431.748 205.937H431.567V221.5H426.339V196.773H430.927L441.6 212.324H441.817V196.773H447.021ZM474.064 209.136C474.064 211.833 473.552 214.127 472.53 216.018C471.516 217.91 470.132 219.355 468.377 220.353C466.63 221.343 464.666 221.838 462.485 221.838C460.287 221.838 458.315 221.339 456.569 220.341C454.822 219.343 453.441 217.898 452.427 216.006C451.413 214.115 450.906 211.825 450.906 209.136C450.906 206.44 451.413 204.146 452.427 202.254C453.441 200.363 454.822 198.922 456.569 197.932C458.315 196.934 460.287 196.435 462.485 196.435C464.666 196.435 466.63 196.934 468.377 197.932C470.132 198.922 471.516 200.363 472.53 202.254C473.552 204.146 474.064 206.44 474.064 209.136ZM468.763 209.136C468.763 207.39 468.502 205.917 467.978 204.717C467.463 203.518 466.735 202.608 465.793 201.989C464.851 201.369 463.748 201.059 462.485 201.059C461.221 201.059 460.118 201.369 459.176 201.989C458.235 202.608 457.502 203.518 456.979 204.717C456.464 205.917 456.206 207.39 456.206 209.136C456.206 210.883 456.464 212.356 456.979 213.555C457.502 214.755 458.235 215.664 459.176 216.284C460.118 216.904 461.221 217.214 462.485 217.214C463.748 217.214 464.851 216.904 465.793 216.284C466.735 215.664 467.463 214.755 467.978 213.555C468.502 212.356 468.763 210.883 468.763 209.136ZM482.573 221.5L475.497 196.773H481.208L485.301 213.954H485.507L490.022 196.773H494.912L499.416 213.99H499.633L503.726 196.773H509.437L502.362 221.5H497.267L492.558 205.333H492.365L487.668 221.5H482.573ZM512.235 221.5V196.773H517.463V217.19H528.064V221.5H512.235ZM531.526 221.5V196.773H548.188V201.083H536.754V206.975H547.331V211.286H536.754V217.19H548.236V221.5H531.526ZM561.11 221.5H552.344V196.773H561.183C563.67 196.773 565.811 197.268 567.606 198.258C569.401 199.24 570.781 200.652 571.747 202.496C572.721 204.339 573.208 206.545 573.208 209.112C573.208 211.688 572.721 213.902 571.747 215.753C570.781 217.604 569.393 219.025 567.582 220.015C565.779 221.005 563.621 221.5 561.11 221.5ZM557.572 217.021H560.893C562.438 217.021 563.738 216.747 564.793 216.2C565.855 215.644 566.652 214.787 567.183 213.628C567.723 212.461 567.992 210.955 567.992 209.112C567.992 207.285 567.723 205.792 567.183 204.633C566.652 203.474 565.859 202.621 564.805 202.073C563.75 201.526 562.45 201.252 560.905 201.252H557.572V217.021ZM593.477 204.766C593.308 204.178 593.071 203.659 592.765 203.208C592.459 202.749 592.085 202.363 591.642 202.049C591.207 201.727 590.708 201.482 590.145 201.312C589.589 201.143 588.974 201.059 588.297 201.059C587.034 201.059 585.923 201.373 584.965 202.001C584.015 202.629 583.275 203.542 582.743 204.741C582.212 205.933 581.947 207.39 581.947 209.112C581.947 210.835 582.208 212.3 582.731 213.507C583.255 214.714 583.995 215.636 584.953 216.272C585.911 216.9 587.042 217.214 588.346 217.214C589.529 217.214 590.539 217.004 591.376 216.586C592.221 216.159 592.865 215.56 593.308 214.787C593.759 214.014 593.984 213.101 593.984 212.046L595.047 212.203H588.672V208.267H599.019V211.382C599.019 213.555 598.56 215.423 597.643 216.984C596.725 218.538 595.461 219.737 593.851 220.582C592.242 221.42 590.398 221.838 588.322 221.838C586.003 221.838 583.967 221.327 582.212 220.305C580.457 219.274 579.089 217.813 578.107 215.922C577.133 214.022 576.646 211.768 576.646 209.161C576.646 207.156 576.936 205.369 577.515 203.8C578.103 202.222 578.924 200.886 579.979 199.791C581.033 198.696 582.26 197.863 583.661 197.292C585.062 196.72 586.579 196.435 588.213 196.435C589.613 196.435 590.917 196.64 592.125 197.05C593.332 197.453 594.403 198.024 595.336 198.765C596.278 199.505 597.047 200.387 597.643 201.409C598.238 202.423 598.621 203.542 598.79 204.766H593.477ZM602.946 221.5V196.773H619.608V201.083H608.174V206.975H618.751V211.286H608.174V217.19H619.656V221.5H602.946Z" fill="#FFFFFF"/>
<path d="M759 2.5H869V47.5C869 97.5 839 127.5 814 132.5C789 127.5 759 97.5 759 47.5V2.5Z" stroke="#C7FF00" stroke-width="5"/>
<path d="M759.947 32.5H721C721 92.5 759.947 102.5 774.553 102.5M867.053 32.5H906C906 92.5 867.053 102.5 852.447 102.5" stroke="#C7FF00" stroke-width="5"/>
<path d="M692.768 196.773L698.744 215.56H698.974L704.962 196.773H710.758L702.234 221.5H695.497L686.96 196.773H692.768ZM718.962 196.773V221.5H713.734V196.773H718.962ZM743.946 196.773V221.5H739.43L728.672 205.937H728.491V221.5H723.263V196.773H727.851L738.525 212.324H738.742V196.773H743.946ZM757.031 221.5H748.265V196.773H757.103C759.591 196.773 761.732 197.268 763.527 198.258C765.322 199.24 766.702 200.652 767.668 202.496C768.642 204.339 769.129 206.545 769.129 209.112C769.129 211.688 768.642 213.902 767.668 215.753C766.702 217.604 765.314 219.025 763.503 220.015C761.7 221.005 759.542 221.5 757.031 221.5ZM753.493 217.021H756.814C758.359 217.021 759.659 216.747 760.714 216.2C761.776 215.644 762.573 214.787 763.104 213.628C763.643 212.461 763.913 210.955 763.913 209.112C763.913 207.285 763.643 205.792 763.104 204.633C762.573 203.474 761.78 202.621 760.726 202.073C759.671 201.526 758.371 201.252 756.826 201.252H753.493V217.021ZM780.871 221.5V196.773H790.627C792.502 196.773 794.1 197.131 795.42 197.847C796.74 198.556 797.746 199.542 798.438 200.805C799.139 202.061 799.489 203.51 799.489 205.152C799.489 206.794 799.135 208.243 798.426 209.499C797.718 210.754 796.692 211.732 795.347 212.433C794.011 213.133 792.393 213.483 790.494 213.483H784.276V209.293H789.649C790.655 209.293 791.484 209.12 792.136 208.774C792.796 208.42 793.287 207.933 793.609 207.313C793.939 206.685 794.104 205.965 794.104 205.152C794.104 204.331 793.939 203.615 793.609 203.003C793.287 202.383 792.796 201.904 792.136 201.566C791.476 201.22 790.639 201.047 789.624 201.047H786.099V221.5H780.871ZM802.884 221.5V196.773H812.64C814.508 196.773 816.101 197.107 817.421 197.775C818.75 198.435 819.76 199.373 820.452 200.588C821.152 201.795 821.502 203.216 821.502 204.85C821.502 206.492 821.148 207.905 820.44 209.088C819.732 210.263 818.705 211.165 817.361 211.793C816.025 212.42 814.407 212.734 812.507 212.734H805.975V208.533H811.662C812.66 208.533 813.489 208.396 814.149 208.122C814.809 207.848 815.3 207.438 815.622 206.891C815.952 206.343 816.117 205.663 816.117 204.85C816.117 204.029 815.952 203.337 815.622 202.773C815.3 202.21 814.805 201.783 814.137 201.494C813.477 201.196 812.644 201.047 811.638 201.047H808.112V221.5H802.884ZM816.238 210.247L822.384 221.5H816.612L810.6 210.247H816.238ZM823.857 221.5L834.446 196.773H856.058V201.083H844.624V206.975H855.201V211.286H844.624V217.19H856.106V221.5H839.396V201.916H837.669L829.604 221.5H823.857ZM829.532 215.862V211.781H842.378V215.862H829.532ZM860.226 196.773H866.674L873.483 213.386H873.773L880.583 196.773H887.03V221.5H881.959V205.406H881.754L875.355 221.379H871.902L865.503 205.345H865.297V221.5H860.226V196.773ZM896.566 196.773V221.5H891.338V196.773H896.566ZM900.867 221.5V196.773H917.529V201.083H906.095V206.975H916.672V211.286H906.095V217.19H917.577V221.5H900.867ZM921.685 221.5V196.773H931.441C933.308 196.773 934.902 197.107 936.222 197.775C937.55 198.435 938.561 199.373 939.253 200.588C939.953 201.795 940.303 203.216 940.303 204.85C940.303 206.492 939.949 207.905 939.241 209.088C938.532 210.263 937.506 211.165 936.162 211.793C934.826 212.42 933.208 212.734 931.308 212.734H924.776V208.533H930.463C931.461 208.533 932.29 208.396 932.95 208.122C933.61 207.848 934.101 207.438 934.423 206.891C934.753 206.343 934.918 205.663 934.918 204.85C934.918 204.029 934.753 203.337 934.423 202.773C934.101 202.21 933.606 201.783 932.938 201.494C932.278 201.196 931.445 201.047 930.439 201.047H926.913V221.5H921.685ZM935.039 210.247L941.185 221.5H935.413L929.4 210.247H935.039Z" fill="#C7FF00"/>
<path d="M529 37.5H399V137.5H529V37.5Z" stroke="#8FD3FF" stroke-width="5"/>
<path d="M464 37.5V137.5" stroke="#8FD3FF" stroke-width="5"/>
<path d="M464 117.5C480.569 117.5 494 104.069 494 87.5C494 70.9315 480.569 57.5 464 57.5C447.431 57.5 434 70.9315 434 87.5C434 104.069 447.431 117.5 464 117.5Z" stroke="#8FD3FF" stroke-width="5"/>
</svg>
